<svg width="16" height="12" viewBox="0 0 16 12" fill="none" xmlns="http://www.w3.org/2000/svg">
<path id="vector" fill-rule="evenodd" clip-rule="evenodd" d="M2 1H14C14.0435 1 14.0863 1.00278 14.1283 1.00816L8.87186 4.76279C8.35031 5.13533 7.64969 5.13533 7.12814 4.76279L1.87166 1.00816C1.91368 1.00278 1.95651 1 2 1ZM1.06021 1.65746C1.02125 1.76431 1 1.87967 1 2V10C1 10.5523 1.44772 11 2 11H14C14.5523 11 15 10.5523 15 10V2C15 1.87967 14.9787 1.76431 14.9398 1.65746L9.4531 5.57653C8.58385 6.19741 7.41615 6.19741 6.5469 5.57653L1.06021 1.65746ZM0 2C0 0.895431 0.895431 0 2 0H14C15.1046 0 16 0.895431 16 2V10C16 11.1046 15.1046 12 14 12H2C0.895431 12 0 11.1046 0 10V2Z" fill="#201E1C"/>
</svg>
