<svg width="18" height="8" viewBox="0 0 18 8" fill="none" xmlns="http://www.w3.org/2000/svg">
<path id="vector" fill-rule="evenodd" clip-rule="evenodd" d="M17.0425 4.00001C17.0425 6.19963 15.2594 7.98278 13.0597 7.98278L10.1569 7.98278C9.82279 7.98278 9.55193 7.71191 9.55193 7.37778C9.55193 7.04365 9.82279 6.77278 10.1569 6.77278L13.0597 6.77278C14.5911 6.77278 15.8325 5.53137 15.8325 4.00001C15.8325 2.46864 14.5911 1.22723 13.0597 1.22723L10.1569 1.22723C9.82279 1.22723 9.55193 0.956359 9.55193 0.622227C9.55193 0.288095 9.82279 0.0172272 10.1569 0.0172272H13.0597C15.2594 0.0172272 17.0425 1.80038 17.0425 4.00001ZM0.957474 4.00001C0.957474 1.80038 2.74062 0.0172309 4.94025 0.0172309H7.84307C8.17721 0.0172309 8.44807 0.288099 8.44807 0.622231C8.44807 0.956363 8.17721 1.22723 7.84307 1.22723H4.94025C3.40889 1.22723 2.16747 2.46865 2.16747 4.00001C2.16747 5.53137 3.40889 6.77279 4.94025 6.77279H7.84307C8.17721 6.77279 8.44807 7.04365 8.44807 7.37779C8.44807 7.71192 8.17721 7.98279 7.84307 7.98279H4.94025C2.74063 7.98279 0.957474 6.19964 0.957474 4.00001ZM5.19863 3.39501C4.8645 3.39501 4.59363 3.66587 4.59363 4.00001C4.59363 4.33414 4.8645 4.60501 5.19863 4.60501H13.132C13.4662 4.60501 13.737 4.33414 13.737 4.00001C13.737 3.66587 13.4662 3.39501 13.132 3.39501H5.19863Z" fill="#201E1C"/>
</svg>
